<?xml version="1.0" encoding="utf-8"?>
<!-- Generator: Adobe Illustrator 19.0.0, SVG Export Plug-In . SVG Version: 6.00 Build 0)  -->
<svg version="1.1" id="Camada_1" xmlns="http://www.w3.org/2000/svg" xmlns:xlink="http://www.w3.org/1999/xlink" x="0px" y="0px"
	 viewBox="-47 110.8 403.4 280.2" style="enable-background:new -47 110.8 403.4 280.2;" xml:space="preserve">
<style type="text/css">
	.st0{fill:#4C4C4C;}
	.st1{fill:#57893A;}
</style>
<g id="computer-devices-responsive_2_">
	<g id="XMLID_14_">
		<g id="_x32_3_2_">
			<path id="XMLID_82_" class="st0" d="M181.7,373.6l4.5,9.6c0,0,0,2.8-1.9,2.8s-105,0-106.9,0c-1.9,0-2.3-2.8-2.3-2.8l4.5-9.6
				H181.7z M181.5,353.3H79.2v17.9h102.2L181.5,353.3L181.5,353.3z M-21.7,307.5V140.1h296.5v19.1h19.4v-32.9c0-5.2-4.2-9.3-9.3-9.3
				h-316c-5.2,0-9.3,4.2-9.3,9.3v186.1v4.4v21.8c0,5.7,4.2,10.5,9.3,10.5h249.7v-41.6L-21.7,307.5L-21.7,307.5z"/>
			<path id="XMLID_15_" class="st1" d="M328,170.3h-75.9c-12.3,0-22.4,10.1-22.4,22.4v170.7c0,12.3,10.1,22.4,22.4,22.4H328
				c12.3,0,22.4-10.1,22.4-22.4V192.8C350.5,180.4,340.4,170.3,328,170.3z M276.4,176.9c0-0.8,1.2-1.3,2.8-1.3h22
				c1.5,0,2.8,0.7,2.8,1.3v0.7c0,0.8-1.2,1.3-2.8,1.3h-22c-1.5,0-2.8-0.7-2.8-1.3V176.9z M292.7,185.1c0,1.5-1.2,2.5-2.7,2.5
				s-2.7-1.2-2.7-2.5c0-1.5,1.2-2.7,2.7-2.7C291.5,182.4,292.7,183.6,292.7,185.1z M304,374.6c0,1.5-1.2,2.8-2.8,2.8h-22
				c-1.5,0-2.8-1.2-2.8-2.8v-1.3c0-1.5,1.2-2.8,2.8-2.8h22c1.5,0,2.8,1.2,2.8,2.8V374.6z M341.2,363.5H240.7V192.8h100.5V363.5z"/>
		</g>
	</g>
</g>
</svg>
