<?xml version="1.0" encoding="utf-8"?>
<!-- Generator: Adobe Illustrator 19.0.0, SVG Export Plug-In . SVG Version: 6.00 Build 0)  -->
<svg version="1.1" xmlns="http://www.w3.org/2000/svg" xmlns:xlink="http://www.w3.org/1999/xlink" x="0px" y="0px"
	 viewBox="-3 110.8 359.4 280.2" style="enable-background:new -3 110.8 359.4 280.2;" xml:space="preserve">
<style type="text/css">
	.st0{fill:#4C4C4C;}
	.st1{fill:#57893A;}
	.st2{fill:#57893A;stroke:#57893A;stroke-width:10;stroke-miterlimit:10;}
</style>
<g id="Camada_1">
	<g>
		<path class="st0" d="M277.2,297.9v37c0,15.5-5.5,28.7-16.5,39.6c-11,11-24.2,16.5-39.6,16.5h-162c-15.5,0-28.7-5.5-39.6-16.5
			C8.5,363.6,3,350.4,3,334.9v-162c0-15.4,5.5-28.7,16.5-39.6c11-11,24.2-16.5,39.6-16.5h162c8.2,0,15.8,1.6,22.8,4.9
			c1.9,0.9,3.1,2.4,3.5,4.5c0.4,2.2-0.2,4.1-1.8,5.6l-9.5,9.5c-1.8,1.8-3.9,2.3-6.2,1.6c-3-0.8-5.9-1.2-8.8-1.2h-162
			c-8.6,0-15.9,3.1-22,9.2c-6.1,6.1-9.2,13.4-9.2,22v162c0,8.6,3,15.9,9.2,22c6.1,6.1,13.4,9.2,22,9.2h162c8.6,0,15.9-3,22-9.2
			c6.1-6.1,9.2-13.4,9.2-22v-24.5c0-1.7,0.6-3.1,1.8-4.3l12.5-12.5c1.9-1.9,4.2-2.4,6.8-1.4C275.9,293.3,277.2,295.2,277.2,297.9z
			 M258.5,154.2l56.1,56.1L183.7,341.1h-56.1v-56.1L258.5,154.2z M175.9,322.4l22.6-22.6l-29.6-29.6l-22.6,22.6v10.9H165v18.7H175.9
			z M261.6,182.2c-2.1-2.1-4.2-2-6.4,0.2L187,250.6c-2.2,2.2-2.3,4.4-0.2,6.4c2.1,2.1,4.2,2,6.4-0.2l68.2-68.2
			C263.6,186.4,263.7,184.3,261.6,182.2z M345,179.9l-17.9,17.9L271,141.7l17.9-17.9c3.6-3.6,8-5.5,13.2-5.5c5.2,0,9.6,1.8,13.2,5.5
			l29.6,29.6c3.6,3.6,5.5,8.1,5.5,13.2C350.4,171.8,348.6,176.3,345,179.9z"/>
	</g>
</g>
<g id="Camada_2">
	<polygon class="st1" points="146.3,303.8 146.3,292.8 168.9,270.3 198.5,299.9 175.9,322.4 165,322.4 165,303.8 	"/>
	<line class="st2" x1="186.8" y1="257" x2="261.7" y2="182.2"/>
</g>
</svg>
