<?xml version="1.0" encoding="utf-8"?>
<!-- Generator: Adobe Illustrator 19.0.0, SVG Export Plug-In . SVG Version: 6.00 Build 0)  -->
<svg version="1.1" id="Camada_1" xmlns="http://www.w3.org/2000/svg" xmlns:xlink="http://www.w3.org/1999/xlink" x="0px" y="0px"
	 viewBox="16 72.2 189.8 57.8" style="enable-background:new 16 72.2 189.8 57.8;" xml:space="preserve">
<style type="text/css">
	.st0{fill:#0F0F0F;}
	.st1{fill:#FFFFFF;}
</style>
<g id="XMLID_63_">
	<circle id="XMLID_1_" cx="43.5" cy="102.1" r="27.5"/>
	<path id="XMLID_9_" class="st0" d="M70.6,102.1c0,15.2-12.1,27.5-27.5,27.5c-0.2-28.5,0-11.9,0-27.1s0.4-2.9,0-27.9
		C58.5,74.6,70.6,86.9,70.6,102.1z"/>
	<g id="XMLID_8_">
		<g id="XMLID_5_">
			<path id="XMLID_6_" class="st1" d="M27,114.6v-24h4.2v19.9h10.6v4.1H27z"/>
		</g>
		<g id="XMLID_2_">
			<path id="XMLID_3_" class="st1" d="M44,114.6v-4.1h11.7v-6.6H45.2v-4.1h10.5v-5.4H44.4v-4.1H60v24.2L44,114.6L44,114.6z"/>
		</g>
	</g>
</g>
<g id="XMLID_4_">
	<circle id="XMLID_15_" cx="43.5" cy="101.1" r="27.5"/>
	<path id="XMLID_14_" class="st0" d="M70.6,101.1c0,15.2-12.1,27.5-27.5,27.5c-0.2-28.5,0-11.9,0-27.1s0.4-2.9,0-27.9
		C58.5,73.6,70.6,85.9,70.6,101.1z"/>
	<g id="XMLID_7_">
		<g id="XMLID_12_">
			<path id="XMLID_13_" class="st1" d="M27,113.6v-24h4.2v19.9h10.6v4.1H27z"/>
		</g>
		<g id="XMLID_10_">
			<path id="XMLID_11_" class="st1" d="M44,113.6v-4.1h11.7v-6.6H45.2v-4.1h10.5v-5.4H44.4v-4.1H60v24.2L44,113.6L44,113.6z"/>
		</g>
	</g>
</g>
<g id="XMLID_16_">
	<circle id="XMLID_23_" cx="43.5" cy="101.1" r="27.5"/>
	<path id="XMLID_22_" class="st0" d="M70.6,101.1c0,15.2-12.1,27.5-27.5,27.5c-0.2-28.5,0-11.9,0-27.1s0.4-2.9,0-27.9
		C58.5,73.6,70.6,85.9,70.6,101.1z"/>
	<g id="XMLID_17_">
		<g id="XMLID_20_">
			<path id="XMLID_21_" class="st1" d="M27,113.6v-24h4.2v19.9h10.6v4.1H27z"/>
		</g>
		<g id="XMLID_18_">
			<path id="XMLID_19_" class="st1" d="M44,113.6v-4.1h11.7v-6.6H45.2v-4.1h10.5v-5.4H44.4v-4.1H60v24.2L44,113.6L44,113.6z"/>
		</g>
	</g>
</g>
<g>
	<g>
		<path d="M80.9,101.3h-1.8V89.5h1.8V101.3z"/>
		<path d="M90.2,101.3h-1.8v-1.3h0c-0.5,1-1.3,1.5-2.5,1.5c-1.9,0-2.8-1.1-2.8-3.4v-4.8h1.8v4.6c0,1.4,0.6,2.2,1.7,2.2
			c0.5,0,1-0.2,1.3-0.6c0.3-0.4,0.5-0.9,0.5-1.6v-4.6h1.8V101.3z"/>
		<path d="M98.3,101c-0.6,0.4-1.4,0.6-2.3,0.6c-1.2,0-2.1-0.4-2.9-1.1c-0.7-0.7-1.1-1.7-1.1-2.9c0-1.3,0.4-2.4,1.2-3.2
			c0.8-0.8,1.8-1.2,3.1-1.2c0.7,0,1.4,0.1,1.9,0.4v1.7c-0.6-0.4-1.2-0.6-1.8-0.6c-0.8,0-1.4,0.3-1.9,0.8c-0.5,0.5-0.7,1.2-0.7,2
			c0,0.8,0.2,1.5,0.7,2c0.5,0.5,1.1,0.7,1.9,0.7c0.7,0,1.3-0.2,1.8-0.7V101z"/>
		<path d="M101,91.7c-0.3,0-0.6-0.1-0.8-0.3c-0.2-0.2-0.3-0.4-0.3-0.7s0.1-0.5,0.3-0.7c0.2-0.2,0.5-0.3,0.8-0.3
			c0.3,0,0.6,0.1,0.8,0.3c0.2,0.2,0.3,0.4,0.3,0.7c0,0.3-0.1,0.5-0.3,0.7C101.6,91.6,101.3,91.7,101,91.7z M101.9,101.3h-1.8v-8h1.8
			V101.3z"/>
		<path d="M110.4,101.3h-1.8v-1.3h0c-0.6,1-1.4,1.4-2.4,1.4c-0.8,0-1.4-0.2-1.8-0.6c-0.4-0.4-0.7-1-0.7-1.7c0-1.5,0.9-2.4,2.6-2.6
			l2.4-0.3c0-1.1-0.5-1.7-1.6-1.7c-1,0-1.8,0.3-2.6,1v-1.6c0.8-0.5,1.8-0.8,2.9-0.8c2,0,3,1,3,3V101.3z M108.7,97.4l-1.7,0.2
			c-0.5,0.1-0.9,0.2-1.2,0.4c-0.3,0.2-0.4,0.5-0.4,1c0,0.3,0.1,0.6,0.4,0.8c0.2,0.2,0.6,0.3,1,0.3c0.6,0,1-0.2,1.4-0.6
			c0.4-0.4,0.5-0.9,0.5-1.5V97.4z"/>
		<path d="M119.8,101.3H118v-4.5c0-1.5-0.5-2.2-1.6-2.2c-0.6,0-1,0.2-1.4,0.6s-0.5,0.9-0.5,1.6v4.6h-1.8v-8h1.8v1.3h0
			c0.6-1,1.5-1.5,2.6-1.5c0.9,0,1.5,0.3,2,0.8c0.5,0.6,0.7,1.4,0.7,2.4V101.3z"/>
		<path d="M125.5,101.5c-1.2,0-2.2-0.4-3-1.1c-0.7-0.7-1.1-1.7-1.1-3c0-1.3,0.4-2.4,1.2-3.1c0.8-0.8,1.8-1.1,3.1-1.1
			c1.3,0,2.2,0.4,2.9,1.1c0.7,0.7,1,1.8,1,3.1c0,1.3-0.4,2.3-1.1,3.1C127.8,101.1,126.8,101.5,125.5,101.5z M125.6,94.6
			c-0.7,0-1.3,0.2-1.7,0.7c-0.4,0.5-0.6,1.2-0.6,2c0,0.8,0.2,1.5,0.6,2c0.4,0.5,1,0.7,1.7,0.7c0.7,0,1.3-0.2,1.6-0.7
			c0.4-0.5,0.6-1.1,0.6-2c0-0.9-0.2-1.6-0.6-2C126.9,94.8,126.3,94.6,125.6,94.6z"/>
		<path d="M142.7,97.8h-5.5c0,0.7,0.2,1.3,0.7,1.7c0.4,0.4,1,0.6,1.8,0.6c0.9,0,1.6-0.3,2.4-0.8v1.5c-0.7,0.5-1.7,0.7-2.9,0.7
			c-1.2,0-2.1-0.4-2.8-1.1s-1-1.7-1-3.1c0-1.2,0.4-2.3,1.1-3c0.7-0.8,1.7-1.2,2.7-1.2s1.9,0.4,2.5,1.1s0.9,1.7,0.9,2.9V97.8z
			 M141,96.6c0-0.7-0.2-1.2-0.5-1.5c-0.3-0.4-0.7-0.5-1.3-0.5c-0.5,0-1,0.2-1.3,0.6c-0.4,0.4-0.6,0.9-0.7,1.5H141z"/>
		<path d="M146.3,100.2L146.3,100.2l0,1.2h-1.8V89.5h1.8v5.3h0c0.6-1.1,1.5-1.6,2.7-1.6c1,0,1.8,0.4,2.4,1.1
			c0.6,0.7,0.9,1.7,0.9,2.9c0,1.3-0.3,2.4-1,3.2s-1.5,1.2-2.6,1.2C147.6,101.5,146.8,101.1,146.3,100.2z M146.2,97v1
			c0,0.6,0.2,1.1,0.6,1.5s0.8,0.6,1.4,0.6c0.7,0,1.2-0.3,1.6-0.8s0.6-1.3,0.6-2.2c0-0.8-0.2-1.4-0.5-1.8s-0.8-0.7-1.4-0.7
			c-0.6,0-1.2,0.2-1.6,0.7C146.4,95.7,146.2,96.3,146.2,97z"/>
		<path d="M160.9,97.8h-5.5c0,0.7,0.2,1.3,0.7,1.7c0.4,0.4,1,0.6,1.8,0.6c0.9,0,1.6-0.3,2.4-0.8v1.5c-0.7,0.5-1.7,0.7-2.9,0.7
			c-1.2,0-2.1-0.4-2.8-1.1s-1-1.7-1-3.1c0-1.2,0.4-2.3,1.1-3c0.7-0.8,1.7-1.2,2.7-1.2s1.9,0.4,2.5,1.1s0.9,1.7,0.9,2.9V97.8z
			 M159.1,96.6c0-0.7-0.2-1.2-0.5-1.5c-0.3-0.4-0.7-0.5-1.3-0.5c-0.5,0-1,0.2-1.3,0.6c-0.4,0.4-0.6,0.9-0.7,1.5H159.1z"/>
		<path d="M167.2,95.1c-0.2-0.2-0.5-0.3-0.9-0.3c-0.5,0-1,0.2-1.3,0.7s-0.5,1.1-0.5,2v3.8h-1.8v-8h1.8V95h0c0.2-0.6,0.4-1,0.8-1.3
			c0.4-0.3,0.8-0.5,1.2-0.5c0.3,0,0.6,0,0.8,0.1V95.1z"/>
		<path d="M175.6,101.3h-1.8V97c0-1.6-0.5-2.4-1.6-2.4c-0.5,0-1,0.2-1.3,0.7c-0.4,0.5-0.5,1-0.5,1.8v4.3h-1.8V89.5h1.8v5.2h0
			c0.6-1,1.5-1.5,2.6-1.5c1.8,0,2.7,1.1,2.7,3.3V101.3z"/>
		<path d="M184,101.3h-1.8v-1.3h0c-0.6,1-1.4,1.4-2.4,1.4c-0.8,0-1.4-0.2-1.8-0.6c-0.4-0.4-0.7-1-0.7-1.7c0-1.5,0.9-2.4,2.6-2.6
			l2.4-0.3c0-1.1-0.5-1.7-1.6-1.7c-1,0-1.8,0.3-2.6,1v-1.6c0.8-0.5,1.8-0.8,2.9-0.8c2,0,3,1,3,3V101.3z M182.2,97.4l-1.7,0.2
			c-0.5,0.1-0.9,0.2-1.2,0.4c-0.3,0.2-0.4,0.5-0.4,1c0,0.3,0.1,0.6,0.4,0.8c0.2,0.2,0.6,0.3,1,0.3c0.6,0,1-0.2,1.4-0.6
			c0.4-0.4,0.5-0.9,0.5-1.5V97.4z"/>
		<path d="M190.8,95.1c-0.2-0.2-0.5-0.3-0.9-0.3c-0.5,0-1,0.2-1.3,0.7s-0.5,1.1-0.5,2v3.8h-1.8v-8h1.8V95h0c0.2-0.6,0.4-1,0.8-1.3
			c0.4-0.3,0.8-0.5,1.2-0.5c0.3,0,0.6,0,0.8,0.1V95.1z"/>
		<path d="M199.2,101.3h-1.8V100h0c-0.6,1-1.5,1.5-2.7,1.5c-1,0-1.8-0.4-2.4-1.1c-0.6-0.7-0.9-1.7-0.9-2.9c0-1.3,0.3-2.4,1-3.2
			s1.5-1.2,2.6-1.2c1.1,0,1.9,0.4,2.4,1.3h0v-5h1.8V101.3z M197.4,97.7v-1c0-0.6-0.2-1-0.6-1.4c-0.4-0.4-0.8-0.6-1.4-0.6
			c-0.7,0-1.2,0.3-1.6,0.8c-0.4,0.5-0.6,1.2-0.6,2.1c0,0.8,0.2,1.5,0.6,1.9c0.4,0.5,0.9,0.7,1.5,0.7c0.6,0,1.1-0.2,1.5-0.7
			C197.2,99,197.4,98.4,197.4,97.7z"/>
		<path d="M205.8,101.3c-0.4,0.2-0.8,0.3-1.4,0.3c-1.6,0-2.3-0.7-2.3-2.2v-4.5h-1.3v-1.4h1.3v-1.9l1.8-0.5v2.4h1.9v1.4h-1.9v4
			c0,0.5,0.1,0.8,0.3,1s0.5,0.3,0.9,0.3c0.3,0,0.6-0.1,0.8-0.3V101.3z"/>
	</g>
	<g>
		<path d="M78.7,112.6v-6.3h1.6c1,0,1.8,0.3,2.4,0.8s0.8,1.3,0.8,2.3c0,1-0.3,1.7-0.9,2.3c-0.6,0.6-1.4,0.9-2.4,0.9H78.7z
			 M79.1,106.7v5.5h1c0.9,0,1.7-0.2,2.2-0.7c0.5-0.5,0.8-1.2,0.8-2.1c0-1.8-0.9-2.7-2.8-2.7H79.1z"/>
		<path d="M85.7,112.6v-6.3h2.9v0.4h-2.5v2.5h2.3v0.4h-2.3v2.6h2.7v0.4H85.7z"/>
		<path d="M90.8,112.4v-0.5c0.5,0.3,0.9,0.4,1.4,0.4c0.5,0,0.9-0.1,1.1-0.3c0.3-0.2,0.4-0.5,0.4-0.9c0-0.3-0.1-0.6-0.3-0.8
			c-0.2-0.2-0.5-0.5-1.1-0.8c-0.6-0.4-1-0.7-1.2-0.9c-0.2-0.3-0.3-0.5-0.3-0.9c0-0.4,0.2-0.8,0.5-1.1s0.8-0.5,1.4-0.5
			c0.4,0,0.8,0.1,1.1,0.2v0.5c-0.4-0.2-0.8-0.3-1.2-0.3c-0.4,0-0.8,0.1-1,0.3c-0.3,0.2-0.4,0.5-0.4,0.8c0,0.3,0.1,0.6,0.3,0.8
			c0.2,0.2,0.5,0.5,1.1,0.8c0.6,0.3,1,0.6,1.2,0.9c0.2,0.3,0.3,0.6,0.3,0.9c0,0.5-0.2,0.9-0.5,1.2c-0.3,0.3-0.8,0.5-1.4,0.5
			c-0.2,0-0.5,0-0.7-0.1S91,112.5,90.8,112.4z"/>
		<path d="M96.4,112.6v-6.3h2.9v0.4h-2.5v2.5h2.3v0.4h-2.3v2.6h2.7v0.4H96.4z"/>
		<path d="M106.2,112.6l-3.8-5.1c-0.1-0.1-0.1-0.2-0.2-0.3l-0.1-0.1h0c0,0.1,0,0.2,0,0.3v5.2h-0.4v-6.3h0.3l3.7,5
			c0.1,0.1,0.2,0.2,0.3,0.4h0c0-0.2,0-0.4,0-0.5v-4.9h0.4v6.3H106.2z"/>
		<path d="M111,112.6h-0.3l-2.3-6.3h0.5l1.8,5.1c0.1,0.2,0.1,0.4,0.2,0.6h0c0-0.1,0.1-0.4,0.2-0.6l1.9-5.1h0.5L111,112.6z"/>
		<path d="M117.9,112.7c-0.9,0-1.6-0.3-2.1-0.9c-0.5-0.6-0.8-1.4-0.8-2.3c0-1,0.3-1.8,0.8-2.4c0.5-0.6,1.3-0.9,2.2-0.9
			c0.8,0,1.5,0.3,2.1,0.9c0.5,0.6,0.8,1.3,0.8,2.3c0,1-0.3,1.9-0.8,2.5S118.8,112.7,117.9,112.7z M117.9,106.6
			c-0.7,0-1.3,0.3-1.8,0.8c-0.5,0.5-0.7,1.2-0.7,2.1c0,0.9,0.2,1.6,0.7,2.1c0.4,0.5,1,0.8,1.8,0.8c0.8,0,1.4-0.3,1.8-0.8
			c0.5-0.5,0.7-1.2,0.7-2.1c0-0.9-0.2-1.6-0.7-2.1C119.3,106.8,118.7,106.6,117.9,106.6z"/>
		<path d="M123,112.6v-6.3h0.4v5.9h2.5v0.4H123z"/>
		<path d="M129.2,112.6h-0.3l-2.3-6.3h0.5l1.8,5.1c0.1,0.2,0.1,0.4,0.2,0.6h0c0-0.1,0.1-0.4,0.2-0.6l1.9-5.1h0.5L129.2,112.6z"/>
		<path d="M133.5,112.6v-6.3h2.9v0.4H134v2.5h2.3v0.4H134v2.6h2.7v0.4H133.5z"/>
		<path d="M138.9,112.6v-6.3h1.6c1,0,1.8,0.3,2.4,0.8s0.8,1.3,0.8,2.3c0,1-0.3,1.7-0.9,2.3c-0.6,0.6-1.4,0.9-2.4,0.9H138.9z
			 M139.4,106.7v5.5h1c0.9,0,1.7-0.2,2.2-0.7c0.5-0.5,0.8-1.2,0.8-2.1c0-1.8-0.9-2.7-2.8-2.7H139.4z"/>
		<path d="M148.5,112.7c-0.9,0-1.6-0.3-2.1-0.9c-0.5-0.6-0.8-1.4-0.8-2.3c0-1,0.3-1.8,0.8-2.4c0.5-0.6,1.3-0.9,2.2-0.9
			c0.8,0,1.5,0.3,2.1,0.9c0.5,0.6,0.8,1.3,0.8,2.3c0,1-0.3,1.9-0.8,2.5S149.4,112.7,148.5,112.7z M148.5,106.6
			c-0.7,0-1.3,0.3-1.8,0.8c-0.5,0.5-0.7,1.2-0.7,2.1c0,0.9,0.2,1.6,0.7,2.1c0.4,0.5,1,0.8,1.8,0.8c0.8,0,1.4-0.3,1.8-0.8
			c0.5-0.5,0.7-1.2,0.7-2.1c0-0.9-0.2-1.6-0.7-2.1C149.9,106.8,149.3,106.6,148.5,106.6z"/>
		<path d="M156.8,112.6l-0.8-1.8c-0.2-0.4-0.3-0.6-0.5-0.8c-0.2-0.1-0.4-0.2-0.7-0.2H154v2.8h-0.4v-6.3h1.7c0.6,0,1,0.2,1.3,0.5
			c0.3,0.3,0.5,0.7,0.5,1.2c0,0.5-0.1,0.8-0.4,1.1s-0.6,0.5-1.1,0.6v0c0.2,0.1,0.5,0.4,0.7,0.9l0.9,2H156.8z M154,106.7v2.7h1.1
			c0.5,0,0.9-0.1,1.1-0.4c0.3-0.3,0.4-0.6,0.4-1c0-0.4-0.1-0.7-0.4-0.9c-0.3-0.2-0.6-0.3-1.1-0.3H154z"/>
		<path d="M168,112.6h-0.4l-1.4-4.7c-0.1-0.2-0.1-0.4-0.1-0.6h0c0,0.1-0.1,0.3-0.1,0.6l-1.5,4.8h-0.4l-1.9-6.3h0.5l1.4,5
			c0.1,0.2,0.1,0.4,0.1,0.6h0c0-0.1,0.1-0.3,0.2-0.6l1.6-5h0.2l1.4,5c0.1,0.2,0.1,0.4,0.1,0.6h0c0-0.1,0-0.2,0.1-0.3l1.5-5.3h0.5
			L168,112.6z"/>
		<path d="M171.8,112.6v-6.3h2.9v0.4h-2.5v2.5h2.3v0.4h-2.3v2.6h2.7v0.4H171.8z"/>
		<path d="M177.2,112.6v-6.3h1.7c0.5,0,0.9,0.1,1.2,0.4c0.3,0.3,0.4,0.6,0.4,1.1c0,0.4-0.1,0.7-0.3,1c-0.2,0.3-0.5,0.5-0.8,0.6v0
			c0.4,0,0.8,0.2,1,0.5c0.3,0.3,0.4,0.6,0.4,1c0,0.5-0.2,1-0.5,1.3c-0.3,0.3-0.8,0.5-1.4,0.5H177.2z M177.6,106.7v2.4h0.9
			c0.5,0,0.8-0.1,1.1-0.4s0.4-0.6,0.4-1c0-0.8-0.4-1.1-1.3-1.1H177.6z M177.6,109.5v2.7h1.2c0.5,0,0.9-0.1,1.1-0.4
			c0.3-0.2,0.4-0.6,0.4-1c0-0.9-0.6-1.3-1.8-1.3H177.6z"/>
	</g>
</g>
</svg>
