<?xml version="1.0" encoding="utf-8"?>
<!-- Generator: Adobe Illustrator 19.0.0, SVG Export Plug-In . SVG Version: 6.00 Build 0)  -->
<svg version="1.1" id="Camada_1" xmlns="http://www.w3.org/2000/svg" xmlns:xlink="http://www.w3.org/1999/xlink" x="0px" y="0px"
	 viewBox="0 0 359 78" style="enable-background:new 0 0 359 78;" xml:space="preserve">
<style type="text/css">
	.st0{fill:#262626;}
	.st1{fill:#57893A;}
	.st2{fill:#FFFFFF;}
</style>
<rect id="XMLID_1_" x="-78" y="-140" class="st0" width="500" height="500"/>
<g id="XMLID_21_">
	<path id="XMLID_28_" class="st1" d="M8.9,5.7v33.4H3.3V5.7H8.9z"/>
	<path id="XMLID_98_" class="st1" d="M20.1,16v14.7c0,1.4,0.3,2.5,1,3.3s1.6,1.2,2.9,1.2c1,0,1.9-0.2,2.7-0.6c0.8-0.4,1.6-1,2.4-1.8
		V16h5.6v23.1h-3.4c-0.7,0-1.2-0.3-1.4-1l-0.4-1.8c-0.5,0.5-1,0.9-1.5,1.3c-0.5,0.4-1.1,0.7-1.6,1c-0.6,0.3-1.2,0.5-1.9,0.7
		c-0.7,0.2-1.4,0.2-2.1,0.2c-1.3,0-2.4-0.2-3.3-0.6c-1-0.4-1.8-1-2.4-1.8c-0.7-0.8-1.2-1.7-1.5-2.8c-0.3-1.1-0.5-2.3-0.5-3.5V16
		H20.1z"/>
	<path id="XMLID_100_" class="st1" d="M56.7,20.9c-0.2,0.2-0.3,0.4-0.5,0.5c-0.2,0.1-0.4,0.2-0.7,0.2c-0.3,0-0.6-0.1-0.8-0.3
		s-0.6-0.4-1-0.6c-0.4-0.2-0.8-0.4-1.3-0.6s-1.2-0.3-1.9-0.3c-1,0-1.8,0.2-2.6,0.5c-0.7,0.4-1.3,0.9-1.8,1.5
		c-0.5,0.7-0.9,1.5-1.1,2.4c-0.2,0.9-0.4,2-0.4,3.2c0,1.2,0.1,2.3,0.4,3.3c0.3,1,0.6,1.8,1.1,2.4c0.5,0.7,1.1,1.1,1.8,1.5
		c0.7,0.3,1.5,0.5,2.4,0.5c0.9,0,1.6-0.1,2.1-0.3c0.5-0.2,1-0.5,1.4-0.7c0.4-0.3,0.7-0.5,1-0.7c0.3-0.2,0.6-0.3,0.9-0.3
		c0.5,0,0.8,0.2,1,0.5l1.6,2c-0.6,0.7-1.3,1.3-2,1.8c-0.7,0.5-1.5,0.9-2.2,1.2s-1.6,0.5-2.4,0.6c-0.8,0.1-1.6,0.2-2.5,0.2
		c-1.4,0-2.8-0.3-4-0.8c-1.3-0.5-2.4-1.3-3.3-2.3c-0.9-1-1.7-2.3-2.2-3.7c-0.5-1.5-0.8-3.2-0.8-5.1c0-1.7,0.2-3.3,0.7-4.7
		c0.5-1.4,1.2-2.7,2.1-3.8c0.9-1.1,2.1-1.9,3.5-2.5c1.4-0.6,3-0.9,4.8-0.9c1.7,0,3.2,0.3,4.5,0.8c1.3,0.6,2.5,1.3,3.5,2.4L56.7,20.9
		z"/>
	<path id="XMLID_102_" class="st1" d="M68.6,9.3c0,0.5-0.1,0.9-0.3,1.4c-0.2,0.4-0.5,0.8-0.8,1.1c-0.3,0.3-0.7,0.6-1.1,0.8
		c-0.4,0.2-0.9,0.3-1.4,0.3c-0.5,0-0.9-0.1-1.4-0.3c-0.4-0.2-0.8-0.4-1.1-0.8s-0.6-0.7-0.8-1.1s-0.3-0.9-0.3-1.4
		c0-0.5,0.1-1,0.3-1.4s0.4-0.8,0.8-1.1s0.7-0.6,1.1-0.8C64,5.8,64.5,5.7,65,5.7c0.5,0,1,0.1,1.4,0.3c0.4,0.2,0.8,0.4,1.1,0.8
		c0.3,0.3,0.6,0.7,0.8,1.1C68.5,8.3,68.6,8.8,68.6,9.3z M67.7,16v23.1h-5.6V16H67.7z"/>
	<path id="XMLID_105_" class="st1" d="M92,39.1h-2.5c-0.5,0-0.9-0.1-1.2-0.2c-0.3-0.2-0.5-0.5-0.7-1l-0.5-1.6
		c-0.6,0.5-1.2,1-1.7,1.4s-1.1,0.7-1.7,1c-0.6,0.3-1.2,0.5-1.9,0.6c-0.7,0.1-1.4,0.2-2.3,0.2c-1,0-1.9-0.1-2.7-0.4
		c-0.8-0.3-1.5-0.7-2.1-1.2c-0.6-0.5-1.1-1.2-1.4-2s-0.5-1.7-0.5-2.7c0-0.9,0.2-1.7,0.7-2.6c0.5-0.9,1.2-1.6,2.3-2.3
		c1.1-0.7,2.5-1.3,4.3-1.7c1.8-0.5,4-0.7,6.6-0.7v-1.4c0-1.6-0.3-2.7-1-3.5S84,20,82.7,20c-0.9,0-1.7,0.1-2.3,0.3
		c-0.6,0.2-1.1,0.4-1.6,0.7s-0.9,0.5-1.2,0.7c-0.4,0.2-0.8,0.3-1.2,0.3c-0.4,0-0.7-0.1-1-0.3c-0.3-0.2-0.5-0.4-0.7-0.7l-1-1.8
		c2.7-2.4,5.9-3.6,9.6-3.6c1.4,0,2.6,0.2,3.6,0.7c1.1,0.4,2,1.1,2.7,1.8c0.7,0.8,1.3,1.7,1.7,2.8c0.4,1.1,0.6,2.3,0.6,3.6V39.1z
		 M81.2,35.6c0.6,0,1.1-0.1,1.6-0.2s0.9-0.3,1.4-0.5c0.4-0.2,0.8-0.5,1.2-0.8s0.8-0.7,1.2-1.1v-3.9c-1.6,0-3,0.1-4.1,0.3
		c-1.1,0.2-2,0.5-2.6,0.8c-0.7,0.3-1.1,0.7-1.4,1.1c-0.3,0.4-0.4,0.9-0.4,1.4c0,1,0.3,1.7,0.9,2.1C79.5,35.4,80.2,35.6,81.2,35.6z"
		/>
	<path id="XMLID_108_" class="st1" d="M97.3,39.1V16h3.4c0.7,0,1.2,0.3,1.4,1l0.4,1.8c0.5-0.5,1-0.9,1.5-1.3c0.5-0.4,1.1-0.7,1.6-1
		c0.6-0.3,1.2-0.5,1.9-0.7c0.7-0.1,1.4-0.2,2.2-0.2c1.3,0,2.4,0.2,3.4,0.6c1,0.4,1.8,1,2.4,1.8c0.7,0.8,1.1,1.7,1.5,2.8
		c0.3,1.1,0.5,2.3,0.5,3.5v14.7h-5.6V24.4c0-1.4-0.3-2.5-1-3.3c-0.7-0.8-1.6-1.2-2.9-1.2c-1,0-1.9,0.2-2.7,0.7
		c-0.8,0.4-1.6,1-2.4,1.8v16.7H97.3z"/>
	<path id="XMLID_110_" class="st1" d="M132.6,15.7c1.7,0,3.3,0.3,4.7,0.8c1.4,0.6,2.6,1.3,3.6,2.4c1,1,1.8,2.3,2.3,3.7
		c0.5,1.5,0.8,3.1,0.8,4.9c0,1.8-0.3,3.5-0.8,4.9c-0.5,1.5-1.3,2.7-2.3,3.8c-1,1-2.2,1.8-3.6,2.4c-1.4,0.6-3,0.8-4.7,0.8
		c-1.7,0-3.3-0.3-4.7-0.8c-1.4-0.6-2.6-1.4-3.6-2.4c-1-1-1.8-2.3-2.3-3.8c-0.5-1.5-0.8-3.1-0.8-4.9c0-1.8,0.3-3.5,0.8-4.9
		c0.5-1.5,1.3-2.7,2.3-3.7s2.2-1.8,3.6-2.4C129.3,15.9,130.9,15.7,132.6,15.7z M132.6,35.2c1.9,0,3.3-0.6,4.3-1.9
		c0.9-1.3,1.4-3.2,1.4-5.7c0-2.5-0.5-4.4-1.4-5.7c-0.9-1.3-2.3-2-4.3-2c-2,0-3.4,0.7-4.3,2s-1.4,3.2-1.4,5.7s0.5,4.4,1.4,5.7
		C129.2,34.5,130.6,35.2,132.6,35.2z"/>
	<path id="XMLID_113_" class="st2" d="M166.3,15.7c1.5,0,2.8,0.2,4,0.7c1.2,0.5,2.3,1.1,3.2,2c0.9,0.9,1.6,2,2.1,3.3
		c0.5,1.3,0.7,2.8,0.7,4.4c0,0.4,0,0.8-0.1,1c0,0.3-0.1,0.5-0.2,0.7c-0.1,0.2-0.2,0.3-0.4,0.3c-0.2,0.1-0.4,0.1-0.6,0.1h-14.3
		c0.2,2.4,0.8,4.1,1.9,5.2c1.1,1.1,2.6,1.7,4.4,1.7c0.9,0,1.7-0.1,2.3-0.3c0.7-0.2,1.2-0.4,1.7-0.7c0.5-0.3,0.9-0.5,1.3-0.7
		s0.7-0.3,1.1-0.3c0.2,0,0.4,0,0.6,0.1c0.2,0.1,0.3,0.2,0.4,0.4l1.6,2c-0.6,0.7-1.3,1.3-2.1,1.8c-0.8,0.5-1.6,0.9-2.4,1.2
		s-1.7,0.5-2.5,0.6c-0.9,0.1-1.7,0.2-2.5,0.2c-1.6,0-3.1-0.3-4.5-0.8c-1.4-0.5-2.6-1.3-3.6-2.4c-1-1-1.8-2.3-2.4-3.9
		c-0.6-1.5-0.9-3.3-0.9-5.3c0-1.6,0.3-3.1,0.8-4.4c0.5-1.4,1.2-2.6,2.2-3.6c1-1,2.1-1.8,3.5-2.4C163,16,164.5,15.7,166.3,15.7z
		 M166.4,19.6c-1.6,0-2.9,0.5-3.8,1.4s-1.5,2.2-1.8,3.9h10.4c0-0.7-0.1-1.4-0.3-2c-0.2-0.6-0.5-1.2-0.9-1.7
		c-0.4-0.5-0.9-0.9-1.5-1.1C167.9,19.8,167.2,19.6,166.4,19.6z"/>
	<path id="XMLID_116_" class="st2" d="M180.7,39.1V5.7h5.6v13.2c0.9-1,1.9-1.8,3.1-2.3c1.2-0.6,2.5-0.9,4-0.9c1.3,0,2.4,0.3,3.5,0.8
		c1,0.5,1.9,1.3,2.7,2.3c0.8,1,1.3,2.2,1.8,3.7c0.4,1.5,0.6,3.1,0.6,5c0,1.7-0.2,3.3-0.7,4.8c-0.5,1.5-1.1,2.7-2,3.8
		c-0.9,1.1-1.9,1.9-3.1,2.5c-1.2,0.6-2.6,0.9-4.1,0.9c-0.7,0-1.3-0.1-1.9-0.2c-0.6-0.1-1.1-0.3-1.6-0.6c-0.5-0.3-0.9-0.6-1.3-0.9
		c-0.4-0.4-0.8-0.8-1.2-1.2l-0.2,1.6c-0.1,0.4-0.2,0.7-0.5,0.8c-0.2,0.2-0.5,0.2-0.9,0.2H180.7z M191.5,20c-1.2,0-2.1,0.2-3,0.7
		c-0.8,0.5-1.6,1.2-2.3,2.1v10.4c0.6,0.8,1.3,1.3,2.1,1.6s1.5,0.5,2.4,0.5c0.8,0,1.6-0.2,2.3-0.5c0.7-0.3,1.2-0.8,1.7-1.4
		c0.5-0.6,0.8-1.5,1.1-2.4c0.3-1,0.4-2.1,0.4-3.5c0-1.3-0.1-2.5-0.3-3.4c-0.2-0.9-0.5-1.7-0.9-2.3s-0.9-1-1.5-1.3
		C192.9,20.1,192.3,20,191.5,20z"/>
	<path id="XMLID_119_" class="st2" d="M215.7,15.7c1.5,0,2.8,0.2,4,0.7c1.2,0.5,2.3,1.1,3.2,2c0.9,0.9,1.6,2,2.1,3.3
		c0.5,1.3,0.7,2.8,0.7,4.4c0,0.4,0,0.8-0.1,1c0,0.3-0.1,0.5-0.2,0.7c-0.1,0.2-0.2,0.3-0.4,0.3c-0.2,0.1-0.4,0.1-0.6,0.1h-14.3
		c0.2,2.4,0.8,4.1,1.9,5.2c1.1,1.1,2.6,1.7,4.4,1.7c0.9,0,1.7-0.1,2.3-0.3s1.2-0.4,1.7-0.7c0.5-0.3,0.9-0.5,1.3-0.7s0.7-0.3,1.1-0.3
		c0.2,0,0.4,0,0.6,0.1c0.2,0.1,0.3,0.2,0.4,0.4l1.6,2c-0.6,0.7-1.3,1.3-2.1,1.8c-0.8,0.5-1.6,0.9-2.4,1.2c-0.8,0.3-1.7,0.5-2.5,0.6
		c-0.9,0.1-1.7,0.2-2.5,0.2c-1.6,0-3.1-0.3-4.5-0.8c-1.4-0.5-2.6-1.3-3.6-2.4c-1-1-1.8-2.3-2.4-3.9c-0.6-1.5-0.9-3.3-0.9-5.3
		c0-1.6,0.3-3.1,0.8-4.4c0.5-1.4,1.2-2.6,2.2-3.6c1-1,2.1-1.8,3.5-2.4C212.4,16,214,15.7,215.7,15.7z M215.8,19.6
		c-1.6,0-2.9,0.5-3.8,1.4s-1.5,2.2-1.8,3.9h10.4c0-0.7-0.1-1.4-0.3-2c-0.2-0.6-0.5-1.2-0.9-1.7c-0.4-0.5-0.9-0.9-1.5-1.1
		C217.4,19.8,216.6,19.6,215.8,19.6z"/>
	<path id="XMLID_122_" class="st2" d="M230.1,39.1V16h3.3c0.6,0,1,0.1,1.2,0.3c0.2,0.2,0.4,0.6,0.4,1.1l0.3,2.8
		c0.8-1.4,1.8-2.5,2.9-3.4c1.1-0.8,2.4-1.2,3.7-1.2c1.1,0,2.1,0.3,2.8,0.8l-0.7,4.2c0,0.3-0.1,0.5-0.3,0.6s-0.4,0.2-0.6,0.2
		c-0.2,0-0.5-0.1-0.9-0.2c-0.4-0.1-0.9-0.2-1.6-0.2c-1.2,0-2.1,0.3-3,1c-0.8,0.6-1.5,1.6-2.1,2.8v14.4H230.1z"/>
	<path id="XMLID_124_" class="st2" d="M248.3,39.1V5.7h5.6v12.8c0.9-0.9,1.9-1.5,3-2.1c1.1-0.5,2.3-0.8,3.8-0.8
		c1.3,0,2.4,0.2,3.4,0.6c1,0.4,1.8,1,2.4,1.8c0.7,0.8,1.1,1.7,1.5,2.8c0.3,1.1,0.5,2.3,0.5,3.5v14.7h-5.6V24.4c0-1.4-0.3-2.5-1-3.3
		c-0.7-0.8-1.6-1.2-2.9-1.2c-1,0-1.9,0.2-2.7,0.7c-0.8,0.4-1.6,1-2.4,1.8v16.7H248.3z"/>
	<path id="XMLID_126_" class="st2" d="M291.9,39.1h-2.5c-0.5,0-0.9-0.1-1.2-0.2c-0.3-0.2-0.5-0.5-0.7-1l-0.5-1.6
		c-0.6,0.5-1.2,1-1.7,1.4s-1.1,0.7-1.7,1s-1.2,0.5-1.9,0.6c-0.7,0.1-1.4,0.2-2.3,0.2c-1,0-1.9-0.1-2.7-0.4c-0.8-0.3-1.5-0.7-2.1-1.2
		c-0.6-0.5-1.1-1.2-1.4-2s-0.5-1.7-0.5-2.7c0-0.9,0.2-1.7,0.7-2.6c0.5-0.9,1.2-1.6,2.3-2.3c1.1-0.7,2.5-1.3,4.3-1.7
		c1.8-0.5,4-0.7,6.6-0.7v-1.4c0-1.6-0.3-2.7-1-3.5s-1.6-1.1-2.8-1.1c-0.9,0-1.7,0.1-2.3,0.3c-0.6,0.2-1.1,0.4-1.6,0.7
		s-0.9,0.5-1.2,0.7c-0.4,0.2-0.8,0.3-1.2,0.3c-0.4,0-0.7-0.1-1-0.3c-0.3-0.2-0.5-0.4-0.7-0.7l-1-1.8c2.7-2.4,5.9-3.6,9.6-3.6
		c1.3,0,2.6,0.2,3.6,0.7c1.1,0.4,2,1.1,2.7,1.8c0.7,0.8,1.3,1.7,1.7,2.8c0.4,1.1,0.6,2.3,0.6,3.6V39.1z M281.1,35.6
		c0.6,0,1.1-0.1,1.6-0.2c0.5-0.1,0.9-0.3,1.4-0.5c0.4-0.2,0.8-0.5,1.2-0.8c0.4-0.3,0.8-0.7,1.2-1.1v-3.9c-1.6,0-3,0.1-4.1,0.3
		c-1.1,0.2-2,0.5-2.6,0.8c-0.7,0.3-1.1,0.7-1.4,1.1c-0.3,0.4-0.4,0.9-0.4,1.4c0,1,0.3,1.7,0.9,2.1C279.4,35.4,280.1,35.6,281.1,35.6
		z"/>
	<path id="XMLID_129_" class="st2" d="M297.2,39.1V16h3.3c0.6,0,1,0.1,1.2,0.3c0.2,0.2,0.4,0.6,0.5,1.1l0.3,2.8
		c0.8-1.4,1.8-2.5,2.9-3.4c1.1-0.8,2.4-1.2,3.7-1.2c1.1,0,2.1,0.3,2.8,0.8l-0.7,4.2c0,0.3-0.1,0.5-0.3,0.6c-0.1,0.1-0.4,0.2-0.6,0.2
		c-0.2,0-0.5-0.1-0.9-0.2c-0.4-0.1-0.9-0.2-1.6-0.2c-1.2,0-2.1,0.3-3,1c-0.8,0.6-1.5,1.6-2.1,2.8v14.4H297.2z"/>
	<path id="XMLID_131_" class="st2" d="M331.7,39.1c-0.7,0-1.2-0.3-1.4-1l-0.5-2.2c-0.5,0.5-1,1-1.5,1.5s-1.1,0.8-1.7,1.1
		s-1.3,0.6-2,0.7c-0.7,0.2-1.5,0.3-2.3,0.3c-1.3,0-2.4-0.3-3.5-0.8c-1.1-0.5-2-1.3-2.7-2.3c-0.8-1-1.3-2.2-1.8-3.7
		c-0.4-1.5-0.6-3.1-0.6-5c0-1.7,0.2-3.3,0.7-4.8c0.5-1.5,1.1-2.7,2-3.8c0.9-1.1,1.9-1.9,3.1-2.5c1.2-0.6,2.6-0.9,4.1-0.9
		c1.3,0,2.4,0.2,3.3,0.6c0.9,0.4,1.7,1,2.5,1.7V5.7h5.6v33.4H331.7z M324.3,35c1.2,0,2.1-0.2,2.9-0.7s1.6-1.2,2.3-2V21.9
		c-0.6-0.8-1.3-1.3-2.1-1.6c-0.7-0.3-1.5-0.5-2.4-0.5c-0.8,0-1.6,0.2-2.3,0.5s-1.3,0.8-1.7,1.4c-0.5,0.6-0.8,1.4-1.1,2.4
		c-0.3,1-0.4,2.1-0.4,3.5c0,1.4,0.1,2.5,0.3,3.4c0.2,0.9,0.5,1.7,0.9,2.3c0.4,0.6,0.9,1,1.5,1.3C322.9,34.9,323.6,35,324.3,35z"/>
	<path id="XMLID_134_" class="st2" d="M348.5,39.5c-2,0-3.5-0.6-4.6-1.7c-1.1-1.1-1.6-2.7-1.6-4.7V20.2H340c-0.3,0-0.6-0.1-0.8-0.3
		c-0.2-0.2-0.3-0.5-0.3-0.9v-2.2l3.7-0.6l1.2-6.3c0.1-0.3,0.2-0.5,0.4-0.7C344.4,9,344.7,9,345,9h2.9v7.3h6.1v4h-6.1v12.5
		c0,0.7,0.2,1.3,0.5,1.7c0.4,0.4,0.8,0.6,1.4,0.6c0.3,0,0.6,0,0.9-0.1s0.4-0.2,0.6-0.3s0.3-0.2,0.5-0.3c0.1-0.1,0.3-0.1,0.4-0.1
		c0.2,0,0.3,0,0.4,0.1c0.1,0.1,0.2,0.2,0.3,0.4l1.7,2.7c-0.8,0.7-1.7,1.2-2.8,1.5C350.8,39.3,349.7,39.5,348.5,39.5z"/>
</g>
<g id="XMLID_7_">
	<g id="XMLID_203_">
		<path id="XMLID_13_" class="st2" d="M164,49.9c21.3,0,42.7,0,64,0c33.8,0,67.7,0,101.5,0c7.8,0,15.6,0,23.4,0c0.5,0,0.5-0.8,0-0.8
			c-21.3,0-42.7,0-64,0c-33.8,0-67.7,0-101.5,0c-7.8,0-15.6,0-23.4,0C163.5,49.1,163.5,49.9,164,49.9L164,49.9z"/>
	</g>
</g>
<g id="XMLID_8_">
	<g id="XMLID_17_">
		<path class="st2" d="M3,49.9c38.4,0,76.9,0,115.3,0c5.6,0,11.1,0,16.7,0c0.5,0,0.5-0.8,0-0.8c-38.4,0-76.9,0-115.3,0
			c-5.6,0-11.1,0-16.7,0C2.5,49.1,2.5,49.9,3,49.9L3,49.9z"/>
	</g>
</g>
<g id="XMLID_23_">
	<path id="XMLID_24_" class="st2" d="M139.4,49.5l5.4-2.8v0.9c0,0.1,0,0.1-0.1,0.2c0,0.1-0.1,0.1-0.2,0.2l-3.1,1.6
		c-0.1,0.1-0.2,0.1-0.3,0.1c-0.1,0-0.2,0.1-0.3,0.1c0.1,0,0.2,0.1,0.3,0.1c0.1,0,0.2,0.1,0.3,0.1l3.1,1.6c0.1,0,0.2,0.1,0.2,0.2
		c0,0.1,0.1,0.1,0.1,0.2v0.9l-5.4-2.8V49.5z"/>
	<path id="XMLID_26_" class="st2" d="M147.6,54.6c-0.1,0.2-0.2,0.3-0.3,0.4c-0.1,0.1-0.3,0.1-0.4,0.1h-0.5l4.2-10.5
		c0.1-0.1,0.1-0.3,0.3-0.3c0.1-0.1,0.2-0.1,0.4-0.1h0.5L147.6,54.6z"/>
	<path id="XMLID_199_" class="st2" d="M153.3,52.9V52c0-0.1,0-0.1,0.1-0.2c0-0.1,0.1-0.1,0.2-0.2l3.1-1.6c0.1,0,0.2-0.1,0.3-0.1
		c0.1,0,0.2-0.1,0.3-0.1c-0.1,0-0.2-0.1-0.3-0.1c-0.1,0-0.2-0.1-0.3-0.1l-3.1-1.6c-0.1,0-0.2-0.1-0.2-0.2c0-0.1-0.1-0.1-0.1-0.2
		v-0.9l5.4,2.8V50L153.3,52.9z"/>
</g>
<g id="XMLID_2_">
	<path id="XMLID_136_" class="st2" d="M11.9,66c0,0.8-0.1,1.4-0.4,2.1c-0.2,0.6-0.6,1.1-1,1.6c-0.4,0.4-1,0.8-1.6,1S7.7,71,7,71H3.2
		V61H7c0.7,0,1.4,0.1,2,0.4s1.1,0.6,1.6,1c0.4,0.4,0.8,1,1,1.6C11.8,64.6,11.9,65.2,11.9,66z M10.5,66c0-0.6-0.1-1.2-0.3-1.7
		s-0.4-0.9-0.7-1.2c-0.3-0.3-0.7-0.6-1.1-0.8C8,62.2,7.5,62.1,7,62.1H4.6v7.8H7c0.5,0,1-0.1,1.5-0.3c0.4-0.2,0.8-0.4,1.1-0.8
		c0.3-0.3,0.5-0.7,0.7-1.2S10.5,66.6,10.5,66z"/>
	<path id="XMLID_139_" class="st2" d="M24,61v1.1h-4.8v3.3h3.9v1.1h-3.9v3.4H24V71h-6.2V61H24z"/>
	<path id="XMLID_141_" class="st2" d="M35.2,62.5c0,0.1-0.1,0.1-0.1,0.2c0,0-0.1,0.1-0.2,0.1c-0.1,0-0.2,0-0.3-0.1
		c-0.1-0.1-0.2-0.2-0.4-0.3s-0.4-0.2-0.6-0.3C33.4,62,33.1,62,32.8,62c-0.3,0-0.6,0-0.8,0.1c-0.2,0.1-0.4,0.2-0.6,0.3
		s-0.3,0.3-0.4,0.5s-0.1,0.4-0.1,0.6c0,0.3,0.1,0.5,0.2,0.7c0.1,0.2,0.3,0.3,0.5,0.5c0.2,0.1,0.5,0.2,0.8,0.3s0.6,0.2,0.9,0.3
		c0.3,0.1,0.6,0.2,0.9,0.3c0.3,0.1,0.5,0.3,0.8,0.5c0.2,0.2,0.4,0.4,0.5,0.7c0.1,0.3,0.2,0.6,0.2,1.1c0,0.4-0.1,0.9-0.2,1.2
		c-0.1,0.4-0.4,0.7-0.7,1c-0.3,0.3-0.6,0.5-1.1,0.7c-0.4,0.2-0.9,0.2-1.4,0.2c-0.6,0-1.2-0.1-1.8-0.4c-0.5-0.2-1-0.6-1.4-1l0.4-0.6
		c0-0.1,0.1-0.1,0.1-0.1c0.1,0,0.1-0.1,0.2-0.1c0.1,0,0.2,0.1,0.3,0.2s0.3,0.2,0.5,0.3c0.2,0.1,0.4,0.2,0.7,0.3s0.6,0.2,1,0.2
		c0.3,0,0.6,0,0.9-0.1s0.5-0.2,0.6-0.4c0.2-0.2,0.3-0.4,0.4-0.6c0.1-0.2,0.1-0.5,0.1-0.7c0-0.3-0.1-0.6-0.2-0.7
		c-0.1-0.2-0.3-0.4-0.5-0.5c-0.2-0.1-0.5-0.2-0.8-0.3c-0.3-0.1-0.6-0.2-0.9-0.3s-0.6-0.2-0.9-0.3s-0.5-0.3-0.8-0.5S30,65,29.9,64.7
		c-0.1-0.3-0.2-0.7-0.2-1.1c0-0.4,0.1-0.7,0.2-1c0.1-0.3,0.3-0.6,0.6-0.9c0.3-0.3,0.6-0.5,1-0.6c0.4-0.2,0.8-0.2,1.3-0.2
		c0.6,0,1.1,0.1,1.5,0.3s0.9,0.4,1.2,0.8L35.2,62.5z"/>
	<path id="XMLID_143_" class="st2" d="M47.7,61v1.1h-4.8v3.3h3.9v1.1h-3.9v3.4h4.8V71h-6.2V61H47.7z"/>
	<path id="XMLID_145_" class="st2" d="M54.7,61c0.1,0,0.1,0.1,0.2,0.2l5.8,7.6c0-0.1,0-0.2,0-0.4c0-0.1,0-0.2,0-0.3V61h1.2v10h-0.7
		c-0.1,0-0.2,0-0.3-0.1c-0.1,0-0.1-0.1-0.2-0.2l-5.8-7.6c0,0.1,0,0.2,0,0.3c0,0.1,0,0.2,0,0.3V71h-1.2V61h0.7
		C54.6,61,54.7,61,54.7,61z"/>
	<path id="XMLID_147_" class="st2" d="M67.2,61h1.1c0.1,0,0.2,0,0.3,0.1c0.1,0.1,0.1,0.1,0.2,0.2l2.8,7.1c0.1,0.2,0.1,0.3,0.2,0.5
		c0.1,0.2,0.1,0.4,0.2,0.6c0-0.2,0.1-0.4,0.1-0.6c0-0.2,0.1-0.4,0.2-0.5l2.8-7.1c0-0.1,0.1-0.2,0.2-0.2c0.1-0.1,0.2-0.1,0.3-0.1h1.1
		l-4.1,10h-1.2L67.2,61z"/>
	<path id="XMLID_149_" class="st2" d="M90.9,66c0,0.8-0.1,1.4-0.4,2.1c-0.2,0.6-0.6,1.2-1,1.6c-0.4,0.5-1,0.8-1.6,1.1
		c-0.6,0.2-1.3,0.4-2,0.4s-1.4-0.1-2-0.4c-0.6-0.2-1.1-0.6-1.6-1.1c-0.4-0.5-0.8-1-1-1.6c-0.2-0.6-0.4-1.3-0.4-2.1
		c0-0.8,0.1-1.4,0.4-2.1c0.2-0.6,0.6-1.2,1-1.6s1-0.8,1.6-1.1c0.6-0.3,1.3-0.4,2-0.4s1.4,0.1,2,0.4c0.6,0.3,1.1,0.6,1.6,1.1
		c0.4,0.5,0.8,1,1,1.6C90.8,64.5,90.9,65.2,90.9,66z M89.6,66c0-0.6-0.1-1.2-0.3-1.7c-0.2-0.5-0.4-0.9-0.7-1.2s-0.7-0.6-1.1-0.8
		C87,62.1,86.5,62,86,62c-0.5,0-1,0.1-1.5,0.3c-0.4,0.2-0.8,0.4-1.1,0.8s-0.5,0.8-0.7,1.2c-0.2,0.5-0.3,1-0.3,1.7
		c0,0.6,0.1,1.2,0.3,1.7c0.2,0.5,0.4,0.9,0.7,1.2c0.3,0.3,0.7,0.6,1.1,0.8c0.4,0.2,0.9,0.3,1.5,0.3c0.5,0,1-0.1,1.5-0.3
		s0.8-0.4,1.1-0.8c0.3-0.3,0.5-0.8,0.7-1.2S89.6,66.6,89.6,66z"/>
	<path id="XMLID_152_" class="st2" d="M98.2,69.9h4.3V71h-5.7V61h1.4V69.9z"/>
	<path id="XMLID_154_" class="st2" d="M105.7,61h1.1c0.1,0,0.2,0,0.3,0.1c0.1,0.1,0.1,0.1,0.2,0.2l2.8,7.1c0.1,0.2,0.1,0.3,0.2,0.5
		c0.1,0.2,0.1,0.4,0.2,0.6c0-0.2,0.1-0.4,0.1-0.6c0-0.2,0.1-0.4,0.2-0.5l2.8-7.1c0-0.1,0.1-0.2,0.2-0.2c0.1-0.1,0.2-0.1,0.3-0.1h1.1
		L111,71h-1.2L105.7,61z"/>
	<path id="XMLID_156_" class="st2" d="M126.6,61v1.1h-4.8v3.3h3.9v1.1h-3.9v3.4h4.8V71h-6.2V61H126.6z"/>
	<path id="XMLID_158_" class="st2" d="M141.4,66c0,0.8-0.1,1.4-0.4,2.1c-0.2,0.6-0.6,1.1-1,1.6c-0.4,0.4-1,0.8-1.6,1
		c-0.6,0.2-1.3,0.4-2,0.4h-3.8V61h3.8c0.7,0,1.4,0.1,2,0.4c0.6,0.2,1.1,0.6,1.6,1c0.4,0.4,0.8,1,1,1.6S141.4,65.2,141.4,66z M140,66
		c0-0.6-0.1-1.2-0.3-1.7s-0.4-0.9-0.7-1.2s-0.7-0.6-1.1-0.8s-0.9-0.3-1.5-0.3H134v7.8h2.4c0.5,0,1-0.1,1.5-0.3
		c0.4-0.2,0.8-0.4,1.1-0.8c0.3-0.3,0.5-0.7,0.7-1.2S140,66.6,140,66z"/>
	<path id="XMLID_161_" class="st2" d="M156.6,66c0,0.8-0.1,1.4-0.4,2.1c-0.2,0.6-0.6,1.2-1,1.6c-0.4,0.5-1,0.8-1.6,1.1
		c-0.6,0.2-1.3,0.4-2,0.4s-1.4-0.1-2-0.4s-1.1-0.6-1.6-1.1c-0.4-0.5-0.8-1-1-1.6c-0.2-0.6-0.4-1.3-0.4-2.1c0-0.8,0.1-1.4,0.4-2.1
		c0.2-0.6,0.6-1.2,1-1.6c0.4-0.5,1-0.8,1.6-1.1s1.3-0.4,2-0.4s1.4,0.1,2,0.4c0.6,0.3,1.1,0.6,1.6,1.1c0.4,0.5,0.8,1,1,1.6
		C156.5,64.5,156.6,65.2,156.6,66z M155.2,66c0-0.6-0.1-1.2-0.3-1.7c-0.2-0.5-0.4-0.9-0.7-1.2c-0.3-0.3-0.7-0.6-1.1-0.8
		c-0.4-0.2-0.9-0.3-1.5-0.3c-0.5,0-1,0.1-1.5,0.3c-0.4,0.2-0.8,0.4-1.1,0.8c-0.3,0.3-0.5,0.8-0.7,1.2c-0.2,0.5-0.3,1-0.3,1.7
		c0,0.6,0.1,1.2,0.3,1.7s0.4,0.9,0.7,1.2c0.3,0.3,0.7,0.6,1.1,0.8s0.9,0.3,1.5,0.3c0.5,0,1-0.1,1.5-0.3c0.4-0.2,0.8-0.4,1.1-0.8
		c0.3-0.3,0.5-0.8,0.7-1.2S155.2,66.6,155.2,66z"/>
	<path id="XMLID_164_" class="st2" d="M164,66.8V71h-1.4V61h2.8c0.6,0,1.2,0.1,1.6,0.2s0.8,0.3,1.1,0.6c0.3,0.2,0.5,0.5,0.7,0.9
		c0.1,0.3,0.2,0.7,0.2,1.2c0,0.4-0.1,0.7-0.2,1c-0.1,0.3-0.3,0.6-0.5,0.8c-0.2,0.2-0.5,0.5-0.8,0.6c-0.3,0.2-0.7,0.3-1,0.4
		c0.2,0.1,0.3,0.2,0.4,0.4l2.9,4h-1.2c-0.2,0-0.4-0.1-0.5-0.3l-2.6-3.6c-0.1-0.1-0.2-0.2-0.3-0.2c-0.1,0-0.2-0.1-0.4-0.1H164z
		 M164,65.8h1.4c0.4,0,0.7,0,1-0.1s0.6-0.2,0.8-0.4c0.2-0.2,0.4-0.4,0.5-0.6c0.1-0.2,0.2-0.5,0.2-0.8c0-0.6-0.2-1-0.6-1.4
		c-0.4-0.3-1-0.5-1.8-0.5H164V65.8z"/>
	<path id="XMLID_167_" class="st2" d="M181.3,61h1.1c0.1,0,0.2,0,0.3,0.1c0.1,0.1,0.1,0.1,0.2,0.2l2.1,7c0,0.1,0.1,0.3,0.1,0.4
		s0.1,0.3,0.1,0.5c0-0.2,0.1-0.3,0.1-0.5c0-0.1,0.1-0.3,0.1-0.4l2.4-7c0-0.1,0.1-0.2,0.2-0.2c0.1-0.1,0.2-0.1,0.3-0.1h0.4
		c0.1,0,0.2,0,0.3,0.1s0.1,0.1,0.2,0.2l2.3,7c0.1,0.2,0.2,0.5,0.2,0.8c0-0.2,0.1-0.3,0.1-0.4c0-0.1,0.1-0.3,0.1-0.4l2.1-7
		c0-0.1,0.1-0.2,0.2-0.2c0.1-0.1,0.2-0.1,0.3-0.1h1.1l-3.1,10H191l-2.5-7.7c-0.1-0.1-0.1-0.3-0.1-0.5c0,0.1,0,0.2-0.1,0.3
		c0,0.1,0,0.2-0.1,0.2l-2.6,7.7h-1.2L181.3,61z"/>
	<path id="XMLID_169_" class="st2" d="M206.9,61v1.1h-4.8v3.3h3.9v1.1h-3.9v3.4h4.8V71h-6.2V61H206.9z"/>
	<path id="XMLID_171_" class="st2" d="M213,71V61h3.2c0.6,0,1.1,0.1,1.6,0.2c0.4,0.1,0.8,0.3,1.1,0.5s0.5,0.5,0.6,0.8
		c0.1,0.3,0.2,0.7,0.2,1.1c0,0.2,0,0.5-0.1,0.7c-0.1,0.2-0.2,0.4-0.3,0.6s-0.4,0.4-0.6,0.5c-0.2,0.2-0.5,0.3-0.8,0.4
		c0.7,0.1,1.3,0.4,1.7,0.8c0.4,0.4,0.6,0.9,0.6,1.5c0,0.4-0.1,0.8-0.2,1.2c-0.2,0.3-0.4,0.7-0.7,0.9s-0.7,0.4-1.1,0.6
		c-0.4,0.1-0.9,0.2-1.5,0.2H213z M214.3,65.5h1.8c0.4,0,0.7,0,1-0.1c0.3-0.1,0.5-0.2,0.7-0.4c0.2-0.1,0.3-0.3,0.4-0.5
		c0.1-0.2,0.1-0.4,0.1-0.7c0-0.6-0.2-1-0.5-1.3c-0.4-0.3-0.9-0.4-1.7-0.4h-1.8V65.5z M214.3,66.4v3.5h2.2c0.4,0,0.7,0,1-0.1
		s0.5-0.2,0.7-0.4c0.2-0.2,0.3-0.4,0.4-0.6c0.1-0.2,0.1-0.5,0.1-0.7c0-0.5-0.2-0.9-0.5-1.2c-0.4-0.3-0.9-0.5-1.7-0.5H214.3z"/>
	<path id="XMLID_175_" class="st2" d="M239,61v1.1h-4.8v3.5h4.1v1.1h-4.1V71h-1.4V61H239z"/>
	<path id="XMLID_177_" class="st2" d="M246.3,66.8V71H245V61h2.8c0.6,0,1.2,0.1,1.6,0.2s0.8,0.3,1.1,0.6c0.3,0.2,0.5,0.5,0.7,0.9
		c0.1,0.3,0.2,0.7,0.2,1.2c0,0.4-0.1,0.7-0.2,1c-0.1,0.3-0.3,0.6-0.5,0.8c-0.2,0.2-0.5,0.5-0.8,0.6c-0.3,0.2-0.7,0.3-1,0.4
		c0.2,0.1,0.3,0.2,0.4,0.4l2.9,4h-1.2c-0.2,0-0.4-0.1-0.5-0.3l-2.6-3.6c-0.1-0.1-0.2-0.2-0.3-0.2c-0.1,0-0.2-0.1-0.4-0.1H246.3z
		 M246.3,65.8h1.4c0.4,0,0.7,0,1-0.1s0.6-0.2,0.8-0.4c0.2-0.2,0.4-0.4,0.5-0.6c0.1-0.2,0.2-0.5,0.2-0.8c0-0.6-0.2-1-0.6-1.4
		c-0.4-0.3-1-0.5-1.8-0.5h-1.5V65.8z"/>
	<path id="XMLID_180_" class="st2" d="M264.1,61v1.1h-4.8v3.3h3.9v1.1h-3.9v3.4h4.8V71h-6.2V61H264.1z"/>
	<path id="XMLID_182_" class="st2" d="M276.3,61v1.1h-4.8v3.3h3.9v1.1h-3.9v3.4h4.8V71h-6.2V61H276.3z"/>
	<path id="XMLID_184_" class="st2" d="M283.7,69.9h4.3V71h-5.7V61h1.4V69.9z"/>
	<path id="XMLID_186_" class="st2" d="M301.9,71h-1.1c-0.1,0-0.2,0-0.3-0.1c-0.1-0.1-0.1-0.1-0.2-0.2l-0.9-2.4h-4.5l-0.9,2.4
		c0,0.1-0.1,0.2-0.2,0.2c-0.1,0.1-0.2,0.1-0.3,0.1h-1l4-10h1.4L301.9,71z M295.3,67.3h3.7l-1.6-4.1c-0.1-0.3-0.2-0.6-0.3-0.9
		c-0.1,0.2-0.1,0.4-0.2,0.5c0,0.2-0.1,0.3-0.1,0.4L295.3,67.3z"/>
	<path id="XMLID_189_" class="st2" d="M308.2,61c0.1,0,0.1,0.1,0.2,0.2l5.8,7.6c0-0.1,0-0.2,0-0.4c0-0.1,0-0.2,0-0.3V61h1.2v10h-0.7
		c-0.1,0-0.2,0-0.3-0.1c-0.1,0-0.1-0.1-0.2-0.2l-5.8-7.6c0,0.1,0,0.2,0,0.3c0,0.1,0,0.2,0,0.3V71h-1.2V61h0.7
		C308,61,308.1,61,308.2,61z"/>
	<path id="XMLID_191_" class="st2" d="M329,68.9c0.1,0,0.1,0,0.2,0.1l0.5,0.6c-0.4,0.5-0.9,0.8-1.5,1.1c-0.6,0.3-1.3,0.4-2.1,0.4
		c-0.7,0-1.4-0.1-2-0.4c-0.6-0.2-1.1-0.6-1.5-1c-0.4-0.5-0.7-1-1-1.6c-0.2-0.6-0.3-1.3-0.3-2.1c0-0.8,0.1-1.4,0.4-2.1
		c0.2-0.6,0.6-1.2,1-1.6s1-0.8,1.6-1.1c0.6-0.2,1.3-0.4,2-0.4c0.7,0,1.4,0.1,1.9,0.3c0.5,0.2,1,0.5,1.4,0.9l-0.4,0.6
		c0,0-0.1,0.1-0.1,0.1s-0.1,0-0.2,0c-0.1,0-0.1,0-0.2-0.1c-0.1,0-0.1-0.1-0.2-0.2c-0.1-0.1-0.2-0.1-0.3-0.2s-0.3-0.1-0.4-0.2
		c-0.2-0.1-0.4-0.1-0.6-0.2s-0.5-0.1-0.8-0.1c-0.5,0-1,0.1-1.5,0.3c-0.4,0.2-0.8,0.4-1.2,0.8c-0.3,0.3-0.6,0.8-0.8,1.2
		c-0.2,0.5-0.3,1-0.3,1.6c0,0.6,0.1,1.2,0.3,1.7c0.2,0.5,0.4,0.9,0.7,1.2c0.3,0.3,0.7,0.6,1.1,0.8c0.4,0.2,0.9,0.3,1.4,0.3
		c0.3,0,0.6,0,0.8-0.1c0.2,0,0.5-0.1,0.7-0.2s0.4-0.2,0.6-0.3c0.2-0.1,0.4-0.3,0.5-0.4C328.8,69,328.9,68.9,329,68.9z"/>
	<path id="XMLID_193_" class="st2" d="M341.7,61v1.1h-4.8v3.3h3.9v1.1h-3.9v3.4h4.8V71h-6.2V61H341.7z"/>
	<path id="XMLID_195_" class="st2" d="M349.2,66.8V71h-1.4V61h2.8c0.6,0,1.2,0.1,1.6,0.2s0.8,0.3,1.1,0.6c0.3,0.2,0.5,0.5,0.7,0.9
		c0.1,0.3,0.2,0.7,0.2,1.2c0,0.4-0.1,0.7-0.2,1c-0.1,0.3-0.3,0.6-0.5,0.8c-0.2,0.2-0.5,0.5-0.8,0.6c-0.3,0.2-0.7,0.3-1,0.4
		c0.2,0.1,0.3,0.2,0.4,0.4l2.9,4h-1.2c-0.2,0-0.4-0.1-0.5-0.3l-2.6-3.6c-0.1-0.1-0.2-0.2-0.3-0.2c-0.1,0-0.2-0.1-0.4-0.1H349.2z
		 M349.2,65.8h1.4c0.4,0,0.7,0,1-0.1s0.6-0.2,0.8-0.4c0.2-0.2,0.4-0.4,0.5-0.6c0.1-0.2,0.2-0.5,0.2-0.8c0-0.6-0.2-1-0.6-1.4
		c-0.4-0.3-1-0.5-1.8-0.5h-1.5V65.8z"/>
</g>
</svg>
