<?xml version="1.0" encoding="utf-8"?>
<!-- Generator: Adobe Illustrator 19.0.0, SVG Export Plug-In . SVG Version: 6.00 Build 0)  -->
<svg version="1.1" id="Camada_1" xmlns="http://www.w3.org/2000/svg" xmlns:xlink="http://www.w3.org/1999/xlink" x="0px" y="0px"
	 viewBox="-101 130.7 296 240.3" style="enable-background:new -101 130.7 296 240.3;" xml:space="preserve">
<style type="text/css">
	.st0{fill:#57893A;}
	.st1{fill:#3A3A3A;}
	.st2{fill:#4C4C4C;}
</style>
<g id="_x31_4">
	<g>
		<g>
			<polygon class="st0" points="48.8,226.9 55.5,222.6 62.9,225.8 60.8,217.9 66,211.9 58,211.5 53.9,204.8 51,212.1 43.3,213.9 
				49.4,219 			"/>
		</g>
		<g>
			<polygon class="st0" points="100.5,257.6 92.8,259.8 86.7,254.6 86.4,262.6 79.6,266.9 87.1,269.6 89,277.4 94,271.1 
				101.9,271.8 97.5,265 			"/>
		</g>
		<g>
			<polygon class="st0" points="131.3,219.8 130.1,204.6 118.7,214.8 103.9,211.3 110,225.3 102,238.3 117.2,236.6 127.1,248.3 
				130.3,233.3 144.5,227.5 			"/>
		</g>
		<g>
			<polygon class="st1" points="-20.9,297 -13.1,308.4 69.1,251.9 61.4,240.6 			"/>
		</g>
		<g>
			<polygon class="st1" points="-50,317 -42.2,328.3 -16.9,310.9 -24.6,299.6 			"/>
		</g>
	</g>
	<path class="st2" d="M164.2,140.9H-61.4c-14.4,0-26.1,11.7-26.1,26.1v167.6c0,14.4,11.7,26.1,26.1,26.1h225.5
		c14.4,0,26.1-11.7,26.1-26.1V167C190.3,152.6,178.6,140.9,164.2,140.9z M161.4,157.6c3.3,0,5.9,2.7,5.9,5.9c0,3.3-2.7,5.9-5.9,5.9
		c-3.3,0-5.9-2.7-5.9-5.9C155.5,160.3,158.1,157.6,161.4,157.6z M114.8,158H144c3.1,0,5.6,2.5,5.6,5.6s-2.5,5.6-5.6,5.6h-29.2
		c-3.1,0-5.6-2.5-5.6-5.6S111.7,158,114.8,158z M176.1,334.6c0,6.5-5.4,11.9-11.9,11.9H-61.4c-6.5,0-11.9-5.4-11.9-11.9V183.8H176
		L176.1,334.6L176.1,334.6z"/>
</g>
</svg>
