<?xml version="1.0" encoding="utf-8"?>
<!-- Generator: Adobe Illustrator 19.0.0, SVG Export Plug-In . SVG Version: 6.00 Build 0)  -->
<svg version="1.1" id="Camada_1" xmlns="http://www.w3.org/2000/svg" xmlns:xlink="http://www.w3.org/1999/xlink" x="0px" y="0px"
	 viewBox="245.5 -23 306 244" style="enable-background:new 245.5 -23 306 244;" xml:space="preserve">
<style type="text/css">
	.st0{fill:#262626;}
	.st1{fill:#DC3545;}
</style>
<g id="computer-devices-responsive">
	<g>
		<g id="_x32_3">
			<path class="st0" d="M420.1,192l3.4,7.2c0,0,0,2.1-1.4,2.1c-1.4,0-79.1,0-80.5,0c-1.4,0-1.7-2.1-1.7-2.1l3.4-7.2H420.1z
				 M419.9,176.7h-77v13.5h77V176.7z M266.9,142.2V16.1h223.3v14.4h14.6V5.7c0-3.9-3.2-7-7-7h-238c-3.9,0-7,3.2-7,7v140.2v3.3v16.4
				c0,4.3,3.2,7.9,7,7.9h188.1v-31.3L266.9,142.2L266.9,142.2z"/>
			<path class="st1" d="M530.3,38.9h-57.2c-9.3,0-16.9,7.6-16.9,16.9v128.6c0,9.3,7.6,16.9,16.9,16.9h57.2c9.3,0,16.9-7.6,16.9-16.9
				V55.8C547.2,46.5,539.6,38.9,530.3,38.9z M491.4,43.8c0-0.6,0.9-1,2.1-1h16.6c1.1,0,2.1,0.5,2.1,1v0.5c0,0.6-0.9,1-2.1,1h-16.6
				c-1.1,0-2.1-0.5-2.1-1V43.8z M503.7,50c0,1.1-0.9,1.9-2,1.9s-2-0.9-2-1.9c0-1.1,0.9-2,2-2S503.7,48.9,503.7,50z M512.2,192.7
				c0,1.1-0.9,2.1-2.1,2.1h-16.6c-1.1,0-2.1-0.9-2.1-2.1v-1c0-1.1,0.9-2.1,2.1-2.1h16.6c1.1,0,2.1,0.9,2.1,2.1V192.7z M540.2,184.4
				h-75.7V55.8h75.7V184.4z"/>
		</g>
	</g>
</g>
<g id="Layer_1">
</g>
</svg>
