<?xml version="1.0" encoding="utf-8"?>
<!-- Generator: Adobe Illustrator 19.0.0, SVG Export Plug-In . SVG Version: 6.00 Build 0)  -->
<svg version="1.1" id="Capa_1" xmlns="http://www.w3.org/2000/svg" xmlns:xlink="http://www.w3.org/1999/xlink" x="0px" y="0px"
	 viewBox="11.5 0 284 236" style="enable-background:new 11.5 0 284 236;" xml:space="preserve">
<style type="text/css">
	.st0{fill:#DC3545;}
	.st1{fill:#262626;}
</style>
<g id="_x31_4">
	<g>
		<g>
			<polygon class="st0" points="150.4,98.6 157.1,94.3 164.5,97.4 162.4,89.6 167.6,83.6 159.6,83.2 155.5,76.4 152.6,83.8 
				144.9,85.6 151,90.7 			"/>
		</g>
		<g>
			<polygon class="st0" points="202.1,129.3 194.4,131.4 188.3,126.3 188,134.3 181.2,138.5 188.7,141.3 190.6,149 195.6,142.8 
				203.5,143.4 199.1,136.7 			"/>
		</g>
		<g>
			<polygon class="st0" points="232.9,91.5 231.7,76.3 220.3,86.5 205.5,82.9 211.6,96.9 203.6,109.9 218.8,108.3 228.7,120 
				231.9,105 246.1,99.2 			"/>
		</g>
		<g>
			<polygon class="st1" points="80.7,168.7 88.5,180 170.7,123.6 163,112.3 			"/>
		</g>
		<g>
			<polygon class="st1" points="51.6,188.7 59.4,199.9 84.7,182.6 77,171.3 			"/>
		</g>
	</g>
	<path class="st1" d="M265.8,12.6H40.2c-14.4,0-26.1,11.7-26.1,26.1v167.6c0,14.4,11.7,26.1,26.1,26.1h225.5
		c14.4,0,26.1-11.7,26.1-26.1V38.7C291.9,24.3,280.2,12.6,265.8,12.6z M263,29.3c3.3,0,5.9,2.7,5.9,5.9c0,3.3-2.7,5.9-5.9,5.9
		c-3.3,0-5.9-2.7-5.9-5.9S259.7,29.3,263,29.3z M216.4,29.7h29.2c3.1,0,5.6,2.5,5.6,5.6s-2.5,5.6-5.6,5.6h-29.2
		c-3.1,0-5.6-2.5-5.6-5.6S213.3,29.7,216.4,29.7z M277.7,206.3c0,6.5-5.4,11.9-11.9,11.9H40.2c-6.5,0-11.9-5.4-11.9-11.9V55.4h249.3
		L277.7,206.3L277.7,206.3z"/>
</g>
</svg>
